<svg width="14" height="16" viewBox="0 0 14 16" fill="none" xmlns="http://www.w3.org/2000/svg">
<path d="M13.5 13H12.7684L8.68375 1.67781C8.61646 1.48011 8.48897 1.30843 8.31915 1.18687C8.14933 1.0653 7.94572 0.999958 7.73688 1H6.26312C6.05428 0.999958 5.85067 1.0653 5.68085 1.18687C5.51103 1.30843 5.38354 1.48011 5.31625 1.67781L1.23156 13H0.5C0.367392 13 0.240215 13.0527 0.146447 13.1464C0.0526784 13.2402 0 13.3674 0 13.5L0 14.5C0 14.6326 0.0526784 14.7598 0.146447 14.8536C0.240215 14.9473 0.367392 15 0.5 15H4.5C4.63261 15 4.75979 14.9473 4.85355 14.8536C4.94732 14.7598 5 14.6326 5 14.5V13.5C5 13.3674 4.94732 13.2402 4.85355 13.1464C4.75979 13.0527 4.63261 13 4.5 13H3.88812L4.61625 11H9.38375L10.1119 13H9.5C9.36739 13 9.24021 13.0527 9.14645 13.1464C9.05268 13.2402 9 13.3674 9 13.5V14.5C9 14.6326 9.05268 14.7598 9.14645 14.8536C9.24021 14.9473 9.36739 15 9.5 15H13.5C13.6326 15 13.7598 14.9473 13.8536 14.8536C13.9473 14.7598 14 14.6326 14 14.5V13.5C14 13.3674 13.9473 13.2402 13.8536 13.1464C13.7598 13.0527 13.6326 13 13.5 13ZM5.52656 8.5L7 4.45344L8.47344 8.5H5.52656Z" fill="#343B6E"/>
</svg>
