<svg width="15" height="12" viewBox="0 0 15 12" fill="none" xmlns="http://www.w3.org/2000/svg">
<path d="M1.99947 12H12.4368C12.758 12 13.0745 11.9226 13.3595 11.7745C13.6445 11.6263 13.8896 11.4116 14.0741 11.1486C14.2586 10.8857 14.377 10.5822 14.4194 10.2637C14.4618 9.94532 14.4268 9.62138 14.3175 9.31933L12.4161 4.06267C12.0914 2.89447 11.393 1.86479 10.4277 1.13111C9.46235 0.397433 8.28329 0.000141386 7.0708 6.78207e-10C5.80862 -1.97282e-05 4.58417 0.430392 3.59961 1.22017C2.61505 2.00995 1.92926 3.11187 1.65547 4.344L0.0888 9.41067C-0.00344016 9.7098 -0.0241766 10.0264 0.0282591 10.335C0.0806947 10.6436 0.204838 10.9356 0.390701 11.1875C0.576564 11.4394 0.818956 11.6441 1.09837 11.7852C1.37779 11.9264 1.68643 11.9999 1.99947 12Z" fill="#343B6E"/>
</svg>
