<svg width="28" height="28" viewBox="0 0 28 28" fill="none" xmlns="http://www.w3.org/2000/svg">
<path d="M12.25 2.1875L3.5 2.1875C3.01675 2.1875 2.625 2.57925 2.625 3.0625L2.625 11.8125C2.625 12.2957 3.01675 12.6875 3.5 12.6875L12.25 12.6875C12.7332 12.6875 13.125 12.2957 13.125 11.8125L13.125 3.0625C13.125 2.57925 12.7332 2.1875 12.25 2.1875Z" fill="#ECECEC"/>
<path d="M12.25 14.4375L3.5 14.4375C3.01675 14.4375 2.625 14.8293 2.625 15.3125L2.625 24.0625C2.625 24.5457 3.01675 24.9375 3.5 24.9375L12.25 24.9375C12.7332 24.9375 13.125 24.5457 13.125 24.0625L13.125 15.3125C13.125 14.8293 12.7332 14.4375 12.25 14.4375Z" fill="#ECECEC"/>
<path d="M24.5 2.1875L15.75 2.1875C15.2668 2.1875 14.875 2.57925 14.875 3.0625L14.875 11.8125C14.875 12.2957 15.2668 12.6875 15.75 12.6875L24.5 12.6875C24.9832 12.6875 25.375 12.2957 25.375 11.8125L25.375 3.0625C25.375 2.57925 24.9832 2.1875 24.5 2.1875Z" fill="#ECECEC"/>
<path d="M24.5 14.4375L15.75 14.4375C15.2668 14.4375 14.875 14.8293 14.875 15.3125L14.875 24.0625C14.875 24.5457 15.2668 24.9375 15.75 24.9375L24.5 24.9375C24.9832 24.9375 25.375 24.5457 25.375 24.0625L25.375 15.3125C25.375 14.8293 24.9832 14.4375 24.5 14.4375Z" fill="#ECECEC"/>
<path d="M7.875 10.0625C9.32475 10.0625 10.5 8.88725 10.5 7.4375C10.5 5.98775 9.32475 4.8125 7.875 4.8125C6.42525 4.8125 5.25 5.98775 5.25 7.4375C5.25 8.88725 6.42525 10.0625 7.875 10.0625Z" fill="#ED9111"/>
<path fill-rule="evenodd" clip-rule="evenodd" d="M20.125 4.34375L23.2186 7.43734L20.125 10.5309L17.0314 7.43734L20.125 4.34375Z" fill="#22BA8E"/>
<path fill-rule="evenodd" clip-rule="evenodd" d="M7.87501 21.4375L5.81788 22.519L6.21076 20.2283L4.54651 18.606L6.84645 18.2718L7.87501 16.1875L8.90357 18.2718L11.2035 18.606L9.53926 20.2283L9.93213 22.519L7.87501 21.4375Z" fill="#E43535"/>
<path fill-rule="evenodd" clip-rule="evenodd" d="M20.125 17.0625L23.1875 22.3125L17.0625 22.3125L20.125 17.0625Z" fill="#5B68C0"/>
</svg>
