<svg width="63" height="48" viewBox="0 0 63 48" fill="none" xmlns="http://www.w3.org/2000/svg">
<path fill-rule="evenodd" clip-rule="evenodd" d="M58.3903 48.473C68.2887 47.7808 75.7517 39.1955 75.0596 29.2972C74.3674 19.3988 65.7821 11.9358 55.8838 12.6279C53.2902 12.8093 50.8638 13.5325 48.7075 14.6794C47.0689 5.81366 38.9973 -0.599408 29.7896 0.044458C19.8913 0.736617 12.4282 9.32191 13.1204 19.2203C13.2063 20.4494 13.414 21.641 13.7307 22.784C13.6111 22.7895 13.4912 22.7964 13.371 22.8048C5.45235 23.3585 -0.518117 30.2267 0.0356101 38.1454C0.589338 46.0641 7.45758 52.0345 15.3762 51.4808L58.3903 48.473Z" fill="#F0F2FF"/>
</svg>
