<svg width="30" height="30" viewBox="0 0 30 30" fill="none" xmlns="http://www.w3.org/2000/svg">
<g clip-path="url(#clip0_4329_2179)">
<path d="M18.1336 4.52825C10.9758 0.752465 4.46014 3.44309 2.1117 7.12043C1.34295 8.32278 0.799201 10.5095 0.820295 12.2439C0.862483 15.8134 2.83826 19.7907 7.10155 23.8032C12.3469 28.7392 17.7 28.3079 19.4015 27.8931C21.5437 27.3704 22.9805 26.9251 22.7601 24.9282C22.732 24.6657 22.507 24.19 22.1672 23.9814C21.0773 23.3204 18.8015 22.9759 17.7305 21.3845C16.1742 19.0665 18.1101 18.9493 19.964 19.9407C21.9492 21.0025 23.0836 21.6657 25.0758 21.4829C26.5359 21.3493 28.6594 20.4681 28.9476 18.0048C29.2055 15.7759 25.9523 8.65325 18.1336 4.52825ZM21.0562 16.6407C20.5078 17.4751 19.1531 17.1892 18.2648 16.4017C17.3765 15.6142 17.2617 14.3017 17.8383 13.7861C18.4242 13.2634 19.5258 13.3829 20.414 14.1704C21.3 14.9603 21.4851 15.9845 21.0562 16.6407Z" fill="#A88465"/>
<path d="M18.4476 3.67742C11.2898 -0.0983636 4.7578 2.82195 2.40936 6.49929C0.0585798 10.179 1.08045 16.9923 7.41327 22.9524C12.6586 27.8884 18.0117 27.4571 19.7133 27.0423C21.8555 26.5196 23.3672 25.5001 22.425 24.1993C21.7758 23.3016 19.4484 22.6243 18.0445 20.5337C16.4883 18.2157 18.4242 18.0985 20.2781 19.0899C22.2633 20.1516 23.3976 20.8149 25.3898 20.6321C26.85 20.4985 29.0578 19.3688 28.9922 17.086C28.9242 14.843 26.2664 7.80476 18.4476 3.67742ZM21.743 16.5751C21.075 17.2969 19.6523 17.1001 18.5648 16.1391C17.4797 15.1759 17.1398 13.8118 17.8078 13.0923C18.4758 12.3704 19.8984 12.5673 20.9859 13.5282C22.0734 14.4891 22.4109 15.8555 21.743 16.5751Z" fill="#FCC695"/>
<path d="M11.1609 19.8424C11.4304 19.1534 13.3476 18.3987 15.1101 19.6526C15.6046 20.0042 16.2234 20.8995 16.1601 22.0245C15.9538 25.6995 9.92336 23.0135 11.1609 19.8424Z" fill="#EEEEEE"/>
<path d="M5.5617 13.6103C6.17811 12.6259 7.67576 12.5134 8.98592 13.3642C10.1531 14.1212 11.1281 15.9845 9.68905 17.2032C8.91795 17.8571 7.58436 17.4517 6.7617 16.8212C5.76326 16.0595 4.89842 14.6696 5.5617 13.6103Z" fill="#2686C6"/>
<path d="M13.5164 5.0206C13.7063 4.24013 15.0305 4.10654 15.968 4.45576C17.5875 5.06045 18.3211 6.66357 17.7234 7.55654C16.8492 8.86201 14.9438 8.41435 14.2219 7.6667C12.9961 6.40107 13.357 5.67451 13.5164 5.0206Z" fill="#FFEE58"/>
<path d="M22.9008 8.84059C24.1992 9.43122 24.368 10.3664 24.1196 11.0484C23.9649 11.4703 23.6485 12.0492 23.0016 12.1008C21.9071 12.1898 21.7547 11.2851 20.9742 11.0367C20.318 10.8281 20.0508 9.93044 20.3086 9.32809C20.5477 8.77262 21.2461 8.08591 22.9008 8.84059Z" fill="#7CB342"/>
<path d="M15.696 22.7253C15.3726 23.0182 14.2499 23.3792 12.8249 22.4886C12.3421 22.1862 11.8804 21.7479 11.6202 21.0917C11.4163 20.5761 11.4609 20.0792 11.5523 19.8589C11.8148 19.2237 12.2156 19.1065 12.2156 19.1065C11.8124 19.0784 11.0507 19.6128 10.9242 20.3136C10.8843 20.5339 10.6007 21.912 12.4265 23.1612C13.9992 24.2393 16.3242 24.1386 16.1718 21.9683C16.1015 22.2354 15.9023 22.5401 15.696 22.7253Z" fill="#B0B0B0"/>
<path d="M10.3734 15.4031C10.3289 16.2398 9.34918 16.6805 8.80308 16.6828C7.25855 16.6852 5.87105 15.7148 5.77496 13.9875C5.75855 13.6781 5.9109 13.2305 5.9109 13.2305C5.70699 13.3172 5.41871 13.7578 5.35777 14.0062C4.99683 15.4969 6.49918 17.2336 8.08121 17.5852C8.88277 17.7633 9.89293 17.4891 10.2609 16.7719C10.5234 16.2609 10.4718 15.8227 10.3734 15.4031Z" fill="#01579B"/>
<path d="M15.7781 7.66904C14.7281 7.54951 14.1469 6.86279 13.9945 6.70576C13.5773 6.26982 13.3195 5.84561 13.4695 5.21748C13.5164 5.01592 13.6312 4.75811 13.7719 4.61279C13.6008 4.66904 13.3242 5.03701 13.2375 5.23623C13.1484 5.43545 12.825 6.18311 13.5187 7.1042C13.9476 7.67607 14.6953 8.32061 15.8016 8.47529C16.5867 8.58545 17.1492 8.3042 17.618 7.84717C17.9367 7.53545 18.0773 6.83232 17.8875 6.46904C17.918 6.73389 17.4328 7.85889 15.7781 7.66904Z" fill="#DF7F14"/>
<path d="M24.4149 10.5119C24.3188 10.158 24.0446 9.79004 24.0164 9.77129C24.136 10.001 24.3727 10.69 23.8758 11.3604C23.625 11.6979 22.8703 12.1127 21.9797 11.3908C21.7172 11.1775 21.5063 10.9666 21.0328 10.7932C19.8305 10.3502 20.3555 9.12676 20.7727 8.74707C20.4446 8.91816 20.1469 9.2252 20.0227 9.69395C19.8492 10.3479 20.2782 11.0322 20.9297 11.3604C21.6703 11.733 21.9094 12.4525 22.9242 12.4525C22.9758 12.4525 23.0297 12.4502 23.0883 12.4455C23.7727 12.3869 24.061 12.1221 24.2696 11.7986C24.525 11.3955 24.5321 10.9385 24.4149 10.5119Z" fill="#558B2F"/>
<path d="M6.0516 6.04465C6.58598 5.51731 7.51645 4.95949 8.87817 5.66965C9.69848 6.09621 10.6524 6.59777 10.2211 8.33215C9.95395 9.40793 8.38832 9.97746 7.08051 8.77981C6.56254 8.30637 4.59379 7.48371 6.0516 6.04465Z" fill="#F44336"/>
<path d="M10.5328 8.10029C10.5492 7.69014 10.3383 7.19092 10.2656 7.02217C10.2774 7.26826 10.4906 7.88936 9.5133 8.71201C9.17346 8.99795 8.55705 9.21592 7.88439 8.95107C7.53986 8.81514 7.04533 8.24561 6.69142 8.10264C5.37658 7.57295 5.94377 6.16436 6.12892 5.97217C5.83127 6.18076 5.57814 6.51357 5.48439 6.99873C5.36252 7.63389 5.47502 8.23389 6.34689 8.92061C8.82189 10.8729 9.58127 9.69639 9.8508 9.39639C10.1906 9.03076 10.5141 8.55264 10.5328 8.10029Z" fill="#C62828"/>
<path d="M15.4078 4.53776C15.0633 4.37604 14.0789 4.42292 13.8891 5.24323C13.7742 5.73542 14.1352 6.23464 14.475 6.17604C14.8617 6.11042 14.6555 5.50808 14.8875 5.33698C15.2414 5.07917 15.8906 4.76511 15.4078 4.53776Z" fill="white"/>
<path d="M8.14688 5.73275C7.80704 5.50775 6.72188 5.5054 6.3961 6.33743C6.19923 6.83665 6.50626 7.41556 6.87423 7.40618C7.29376 7.39681 7.0922 6.90228 7.44142 6.58822C7.88204 6.19212 8.62266 6.04681 8.14688 5.73275Z" fill="white"/>
<path d="M7.98513 13.2424C7.66403 13.0385 6.71247 12.9588 6.31872 13.7041C6.03044 14.2525 6.42653 14.8572 6.77107 14.8408C7.16247 14.8221 7.03122 14.1986 7.282 14.058C7.66403 13.8447 8.43513 13.5283 7.98513 13.2424Z" fill="white"/>
<path d="M13.4531 19.4836C13.1086 19.3218 12.1242 19.3687 11.9344 20.189C11.8195 20.6812 12.1805 21.1804 12.5203 21.1218C12.907 21.0562 12.7008 20.4539 12.9328 20.2828C13.2844 20.025 13.9336 19.7109 13.4531 19.4836Z" fill="white"/>
<path d="M22.2844 8.91816C21.975 8.69785 20.9977 8.56895 20.6649 9.34238C20.4657 9.80645 20.7305 10.3619 21.075 10.3643C21.4664 10.3666 21.3703 9.73848 21.6305 9.61191C22.0219 9.42207 22.718 9.22754 22.2844 8.91816Z" fill="white"/>
</g>
<defs>
<clipPath id="clip0_4329_2179">
<rect width="30" height="30" fill="white"/>
</clipPath>
</defs>
</svg>
