<svg width="31" height="31" viewBox="0 0 31 31" fill="none" xmlns="http://www.w3.org/2000/svg">
<path fill-rule="evenodd" clip-rule="evenodd" d="M7.47873 15.1657C7.47873 15.4079 7.40608 15.6234 7.26076 15.8123C7.11545 16.0012 6.93139 16.0908 6.70857 16.0812C6.55357 16.0715 6.17576 15.8656 5.57514 15.4636C4.97451 15.0615 4.66936 14.783 4.65967 14.628C4.65967 14.5602 4.6742 14.4706 4.70326 14.3592C4.73232 14.2478 4.74686 14.163 4.74686 14.1049V8.00178C4.74686 7.77896 4.52889 7.61912 4.09295 7.52225C3.60857 7.406 3.33248 7.24615 3.26467 7.04271C3.22592 6.93615 3.20654 6.83443 3.20654 6.73756C3.20654 6.52443 3.3131 6.27256 3.52623 5.98193C3.81686 5.58474 3.99123 5.32803 4.04936 5.21178L4.39811 4.07834C4.56279 3.65209 4.84857 3.43896 5.25545 3.43896C5.67201 3.43896 6.08857 3.5649 6.50514 3.81678C6.97014 4.09772 7.20264 4.4174 7.20264 4.77584V14.4101C7.20264 14.5069 7.24865 14.6304 7.34068 14.7806C7.43272 14.9308 7.47873 15.0591 7.47873 15.1657Z" fill="#7180F1"/>
<path fill-rule="evenodd" clip-rule="evenodd" d="M18.3771 18.8907C18.4062 19.1717 18.227 19.3703 17.8395 19.4865C17.7135 19.4671 17.5295 19.472 17.2873 19.501C17.1129 19.501 16.5656 19.6415 15.6452 19.9224C14.6087 20.2131 13.8385 20.4843 13.3348 20.7362C13.1992 20.804 13.0756 20.8936 12.9642 21.005C12.8528 21.1164 12.7826 21.1721 12.7535 21.1721C12.6082 21.1915 12.1868 20.9396 11.4893 20.4165C11.2956 20.3003 11.1018 20.1743 10.9081 20.0387C10.7143 19.9031 10.6126 19.7432 10.6029 19.5592C10.6029 19.4913 11.0243 18.8568 11.8671 17.6556C12.9037 16.1831 13.7077 14.9528 14.2793 13.9646C15.1609 12.4049 15.6356 11.1698 15.7034 10.2592C14.9477 10.5692 14.1921 11.2667 13.4365 12.3517C13.3784 12.4001 13.342 12.4897 13.3275 12.6205C13.313 12.7513 13.2863 12.8409 13.2476 12.8893C13.1507 13.0153 13.0103 13.0782 12.8262 13.0782C12.5065 13.0782 12.119 12.9232 11.6637 12.6132L11.0824 12.2935C10.8499 12.1676 10.7288 12.0562 10.7192 11.9593C10.6998 11.7365 10.942 11.3054 11.4457 10.666C11.9882 9.98791 12.5888 9.41151 13.2476 8.93682C14.0323 8.35556 14.7298 8.06494 15.3401 8.06494C15.5726 8.06494 15.793 8.14002 16.0013 8.29018C16.2095 8.44033 16.4106 8.59291 16.6043 8.74791C17.389 9.29041 17.8879 9.80385 18.101 10.2882C18.1398 10.3851 18.1592 10.511 18.1592 10.666C18.1592 11.3442 17.8007 12.4485 17.0838 13.9792C16.4057 15.4226 15.6792 16.6771 14.9042 17.7428C15.2045 17.6459 15.621 17.5006 16.1538 17.3068C16.212 17.2778 16.3137 17.2099 16.459 17.1034C16.5559 17.0356 16.6479 17.0065 16.7351 17.0162C16.9676 17.0453 17.2945 17.3189 17.716 17.8372C18.1374 18.3555 18.3577 18.7067 18.3771 18.8907Z" fill="#5EA7FF"/>
<path fill-rule="evenodd" clip-rule="evenodd" d="M27.9388 18.6291C27.871 19.3072 27.4302 20.1209 26.6164 21.0703C27.5949 21.8938 28.0841 22.8334 28.0841 23.8894C28.0841 24.9744 27.6046 26.0158 26.6455 27.0136C25.7736 27.9049 24.955 28.3747 24.1897 28.4231C23.8797 28.4425 23.2452 28.0647 22.2861 27.2897C21.3561 26.5341 20.8863 26.0594 20.8766 25.8656C20.8669 25.6428 20.9735 25.4394 21.1963 25.2553C21.4191 25.0713 21.6322 24.9841 21.8356 24.9938C21.9713 25.0034 22.1892 25.1827 22.4896 25.5314C22.7899 25.8802 23.066 26.0788 23.3178 26.1272C23.715 26.2144 24.2527 25.8124 24.9308 24.9211C25.5799 24.0783 25.9044 23.4534 25.9044 23.0466C25.9044 22.8722 25.793 22.785 25.5702 22.785C25.4152 22.785 25.2311 22.8625 25.018 23.0175C24.863 23.1241 24.7104 23.2331 24.5603 23.3445C24.4101 23.4559 24.2624 23.5019 24.1171 23.4825C23.9524 23.4631 23.6884 23.3081 23.3251 23.0175C22.9618 22.7269 22.6639 22.4266 22.4314 22.1166C22.383 22.0488 22.3588 21.9713 22.3588 21.8841C22.3588 21.6128 22.4896 21.4191 22.7511 21.3028C23.1192 21.1381 23.5649 20.7894 24.088 20.2566C24.8436 19.4719 25.3135 18.6388 25.4975 17.7572C25.11 17.8444 24.6789 18.2052 24.2042 18.8398C23.7295 19.4743 23.4341 19.8109 23.3178 19.8497C23.1338 19.9175 22.7826 19.8013 22.2643 19.5009C21.746 19.2006 21.4094 18.9342 21.2544 18.7017C21.2253 18.663 21.2108 18.6145 21.2108 18.5564C21.2108 18.4014 21.3416 18.1786 21.6031 17.888C22.4072 16.987 22.9594 16.4106 23.2597 16.1588C23.8894 15.6259 24.49 15.3741 25.0616 15.4031C25.701 15.4419 26.3573 15.8342 27.0306 16.5802C27.7039 17.3261 28.0066 18.0091 27.9388 18.6291Z" fill="#56E287"/>
</svg>
