<svg width="48" height="48" viewBox="0 0 48 48" fill="none" xmlns="http://www.w3.org/2000/svg">
<rect x="1" y="1" width="46" height="46" rx="9" fill="white"/>
<rect x="1" y="1" width="46" height="46" rx="9" stroke="#DFDFDF" stroke-width="2"/>
<g clip-path="url(#clip0_4065_2461)">
<path d="M18.6667 16H20.6667C22.1394 16 23.3333 17.1939 23.3333 18.6667V20.6667C23.3333 22.1394 22.1394 23.3333 20.6667 23.3333H18.6667C17.1939 23.3333 16 22.1394 16 20.6667V18.6667C16 17.1939 17.1939 16 18.6667 16Z" fill="#707070"/>
<path d="M27.3333 16H29.3333C30.8061 16 32 17.1939 32 18.6667V20.6667C32 22.1394 30.8061 23.3333 29.3333 23.3333H27.3333C25.8606 23.3333 24.6667 22.1394 24.6667 20.6667V18.6667C24.6667 17.1939 25.8606 16 27.3333 16Z" fill="#707070"/>
<path d="M18.6667 24.6665H20.6667C22.1394 24.6665 23.3333 25.8604 23.3333 27.3332V29.3332C23.3333 30.8059 22.1394 31.9998 20.6667 31.9998H18.6667C17.1939 31.9998 16 30.8059 16 29.3332V27.3332C16 25.8604 17.1939 24.6665 18.6667 24.6665Z" fill="#707070"/>
<path d="M27.3333 24.6665H29.3333C30.8061 24.6665 32 25.8604 32 27.3332V29.3332C32 30.8059 30.8061 31.9998 29.3333 31.9998H27.3333C25.8606 31.9998 24.6667 30.8059 24.6667 29.3332V27.3332C24.6667 25.8604 25.8606 24.6665 27.3333 24.6665Z" fill="#707070"/>
</g>
<defs>
<clipPath id="clip0_4065_2461">
<rect width="16" height="16" fill="white" transform="translate(16 16)"/>
</clipPath>
</defs>
</svg>
