<svg width="36" height="36" viewBox="0 0 36 36" fill="none" xmlns="http://www.w3.org/2000/svg">
<rect x="0.5" y="0.5" width="35" height="35" rx="9.5" fill="white"/>
<rect x="0.5" y="0.5" width="35" height="35" rx="9.5" stroke="#DFDFDF"/>
<path d="M25 12.7498C25 13.0707 24.7375 13.3332 24.4167 13.3332H11.5833C11.2625 13.3332 11 13.0707 11 12.7498C11 12.429 11.2625 12.1665 11.5833 12.1665H24.4167C24.7375 12.1665 25 12.429 25 12.7498ZM19.75 22.6665H16.25C15.9292 22.6665 15.6667 22.929 15.6667 23.2498C15.6667 23.5707 15.9292 23.8332 16.25 23.8332H19.75C20.0708 23.8332 20.3333 23.5707 20.3333 23.2498C20.3333 22.929 20.0708 22.6665 19.75 22.6665ZM22.0833 17.4165H13.9167C13.5958 17.4165 13.3333 17.679 13.3333 17.9998C13.3333 18.3207 13.5958 18.5832 13.9167 18.5832H22.0833C22.4042 18.5832 22.6667 18.3207 22.6667 17.9998C22.6667 17.679 22.4042 17.4165 22.0833 17.4165Z" fill="#707070"/>
</svg>
