<svg width="48" height="48" viewBox="0 0 48 48" fill="none" xmlns="http://www.w3.org/2000/svg">
<rect x="2" y="2" width="44" height="44" rx="8" fill="url(#paint0_linear_4065_2441)"/>
<rect x="2" y="2" width="44" height="44" rx="8" stroke="url(#paint1_linear_4065_2441)" stroke-width="4"/>
<g clip-path="url(#clip0_4065_2441)">
<path d="M36 21C35.8705 21.7261 35.5819 22.4146 35.155 23.016L26.372 34.836C26.0935 35.1958 25.7369 35.4875 25.3291 35.6891C24.9213 35.8907 24.473 35.9969 24.0181 35.9997C23.5631 36.0025 23.1135 35.9018 22.7033 35.7052C22.293 35.5086 21.9329 35.2213 21.65 34.865L12.824 22.8C12.4491 22.2567 12.1844 21.6452 12.045 21H18.313L23.066 33.359C23.1383 33.5481 23.2663 33.7108 23.4331 33.8255C23.5999 33.9403 23.7976 34.0017 24 34.0017C24.2024 34.0017 24.4001 33.9403 24.5669 33.8255C24.7337 33.7108 24.8617 33.5481 24.934 33.359L29.687 21H36ZM29.7 19H35.957C35.8049 18.3234 35.513 17.6861 35.1 17.129L32.542 13.675C32.1716 13.1573 31.6831 12.7353 31.117 12.444C30.551 12.1527 29.9236 12.0005 29.287 12H27.087L29.7 19ZM23.108 12L20.449 19H27.561L24.955 12H23.108ZM18.31 19L20.968 12H18.646C18.0148 11.9994 17.3924 12.1485 16.8301 12.4352C16.2677 12.7219 15.7813 13.1378 15.411 13.649L12.938 16.891C12.4648 17.511 12.1435 18.2334 12 19H18.31ZM27.544 21H20.456L24 30.214L27.544 21Z" fill="white"/>
</g>
<defs>
<linearGradient id="paint0_linear_4065_2441" x1="45.9081" y1="7.55038" x2="-3.0342" y2="40.5213" gradientUnits="userSpaceOnUse">
<stop stop-color="#E35CFF"/>
<stop offset="0.475086" stop-color="#3387FF"/>
<stop offset="1" stop-color="#25EC77"/>
</linearGradient>
<linearGradient id="paint1_linear_4065_2441" x1="45.9081" y1="7.55038" x2="-3.0342" y2="40.5213" gradientUnits="userSpaceOnUse">
<stop stop-color="#E35CFF"/>
<stop offset="0.475086" stop-color="#3387FF"/>
<stop offset="1" stop-color="#25EC77"/>
</linearGradient>
<clipPath id="clip0_4065_2441">
<rect width="24" height="24" fill="white" transform="translate(12 12)"/>
</clipPath>
</defs>
</svg>
