<svg width="48" height="48" viewBox="0 0 48 48" fill="none" xmlns="http://www.w3.org/2000/svg">
<rect x="1" y="1" width="46" height="46" rx="9" fill="white"/>
<rect x="1" y="1" width="46" height="46" rx="9" stroke="#DFDFDF" stroke-width="2"/>
<g clip-path="url(#clip0_4065_2451)">
<path d="M24 26.6667C23.4726 26.6667 22.957 26.5103 22.5185 26.2173C22.0799 25.9242 21.7382 25.5078 21.5363 25.0205C21.3345 24.5332 21.2817 23.997 21.3846 23.4798C21.4875 22.9625 21.7414 22.4873 22.1144 22.1144C22.4873 21.7414 22.9625 21.4875 23.4798 21.3846C23.997 21.2817 24.5332 21.3345 25.0205 21.5363C25.5078 21.7382 25.9242 22.0799 26.2173 22.5185C26.5103 22.957 26.6667 23.4726 26.6667 24C26.6667 24.7072 26.3857 25.3855 25.8856 25.8856C25.3855 26.3857 24.7072 26.6667 24 26.6667ZM19.7887 26.6667H16.6667C16.4899 26.6667 16.3203 26.5964 16.1953 26.4714C16.0702 26.3464 16 26.1768 16 26C16.0063 25.0427 16.3545 24.1192 16.9817 23.3961C17.6089 22.6729 18.4739 22.1976 19.4207 22.056C19.5307 22.0406 19.6428 22.0529 19.7468 22.0918C19.8509 22.1308 19.9435 22.1951 20.0164 22.279C20.0893 22.3628 20.14 22.4636 20.164 22.572C20.1881 22.6805 20.1846 22.7932 20.154 22.9C20.0518 23.2577 20 23.628 20 24C20.0002 24.5932 20.1337 25.1787 20.3907 25.7133C20.439 25.8148 20.4609 25.9269 20.4543 26.0391C20.4477 26.1513 20.4129 26.26 20.353 26.3551C20.2931 26.4502 20.2102 26.5287 20.1119 26.5831C20.0136 26.6376 19.9031 26.6664 19.7907 26.6667H19.7887ZM27.3333 32H20.6667C20.4899 32 20.3203 31.9298 20.1953 31.8047C20.0702 31.6797 20 31.5101 20 31.3333C20 30.2725 20.4214 29.2551 21.1716 28.5049C21.9217 27.7548 22.9391 27.3333 24 27.3333C25.0609 27.3333 26.0783 27.7548 26.8284 28.5049C27.5786 29.2551 28 30.2725 28 31.3333C28 31.5101 27.9298 31.6797 27.8047 31.8047C27.6797 31.9298 27.5101 32 27.3333 32ZM28 21.3333C27.4726 21.3333 26.957 21.1769 26.5185 20.8839C26.0799 20.5909 25.7382 20.1744 25.5363 19.6872C25.3345 19.1999 25.2817 18.6637 25.3846 18.1464C25.4875 17.6291 25.7414 17.154 26.1144 16.781C26.4873 16.4081 26.9625 16.1541 27.4798 16.0512C27.997 15.9483 28.5332 16.0012 29.0205 16.203C29.5078 16.4048 29.9242 16.7466 30.2173 17.1851C30.5103 17.6237 30.6667 18.1393 30.6667 18.6667C30.6667 19.3739 30.3857 20.0522 29.8856 20.5523C29.3855 21.0524 28.7072 21.3333 28 21.3333ZM20 21.3333C19.4726 21.3333 18.957 21.1769 18.5185 20.8839C18.0799 20.5909 17.7382 20.1744 17.5363 19.6872C17.3345 19.1999 17.2817 18.6637 17.3846 18.1464C17.4875 17.6291 17.7414 17.154 18.1144 16.781C18.4873 16.4081 18.9625 16.1541 19.4798 16.0512C19.997 15.9483 20.5332 16.0012 21.0205 16.203C21.5078 16.4048 21.9242 16.7466 22.2173 17.1851C22.5103 17.6237 22.6667 18.1393 22.6667 18.6667C22.6667 19.3739 22.3857 20.0522 21.8856 20.5523C21.3855 21.0524 20.7072 21.3333 20 21.3333ZM31.3333 26.6667H28.2113C28.0989 26.6664 27.9884 26.6376 27.8901 26.5831C27.7918 26.5287 27.7089 26.4502 27.649 26.3551C27.5891 26.26 27.5543 26.1513 27.5477 26.0391C27.5411 25.9269 27.563 25.8148 27.6113 25.7133C27.8676 25.1786 28.0004 24.593 28 24C27.9989 23.6278 27.946 23.2576 27.8427 22.9C27.8119 22.7929 27.8084 22.6798 27.8326 22.571C27.8568 22.4623 27.9078 22.3613 27.9811 22.2773C28.0544 22.1934 28.1475 22.1291 28.252 22.0905C28.3565 22.0518 28.4691 22.04 28.5793 22.056C29.5261 22.1976 30.3911 22.6729 31.0183 23.3961C31.6455 24.1192 31.9937 25.0427 32 26C32 26.1768 31.9298 26.3464 31.8047 26.4714C31.6797 26.5964 31.5101 26.6667 31.3333 26.6667Z" fill="#707070"/>
</g>
<defs>
<clipPath id="clip0_4065_2451">
<rect width="16" height="16" fill="white" transform="translate(16 16)"/>
</clipPath>
</defs>
</svg>
